<svg width="24" height="25" viewBox="0 0 24 25" fill="none" xmlns="http://www.w3.org/2000/svg">
<path d="M12 19.55C11.8667 19.55 11.7373 19.525 11.612 19.475C11.4867 19.425 11.3827 19.3583 11.3 19.275L6.7 14.675C6.51667 14.4917 6.425 14.2583 6.425 13.975C6.425 13.6917 6.51667 13.4583 6.7 13.275C6.88334 13.0917 7.11667 13 7.4 13C7.68334 13 7.91667 13.0917 8.1 13.275L12 17.175L15.9 13.275C16.0833 13.0917 16.3167 13 16.6 13C16.8833 13 17.1167 13.0917 17.3 13.275C17.4833 13.4583 17.575 13.6917 17.575 13.975C17.575 14.2583 17.4833 14.4917 17.3 14.675L12.7 19.275C12.6 19.375 12.4917 19.446 12.375 19.488C12.2583 19.53 12.1333 19.5507 12 19.55Z" fill="black"/>
</svg>
