<svg width="30" height="30" viewBox="0 0 30 30" fill="none" xmlns="http://www.w3.org/2000/svg">
<path d="M15.1875 9.5625C14.075 9.5625 12.9874 9.8924 12.0624 10.5105C11.1374 11.1286 10.4164 12.0071 9.99068 13.0349C9.56494 14.0627 9.45354 15.1937 9.67058 16.2849C9.88763 17.376 10.4234 18.3783 11.21 19.165C11.9967 19.9516 12.999 20.4874 14.0901 20.7044C15.1813 20.9215 16.3123 20.8101 17.3401 20.3843C18.3679 19.9586 19.2464 19.2376 19.8645 18.3126C20.4826 17.3876 20.8125 16.3 20.8125 15.1875C20.8109 13.6961 20.2178 12.2663 19.1633 11.2117C18.1087 10.1572 16.6789 9.56405 15.1875 9.5625ZM15.1875 18.9375C14.4458 18.9375 13.7208 18.7176 13.1041 18.3055C12.4874 17.8935 12.0068 17.3078 11.723 16.6226C11.4391 15.9373 11.3649 15.1833 11.5096 14.4559C11.6542 13.7285 12.0114 13.0603 12.5358 12.5358C13.0603 12.0114 13.7285 11.6542 14.4559 11.5096C15.1833 11.3649 15.9373 11.4391 16.6226 11.723C17.3078 12.0068 17.8935 12.4874 18.3055 13.1041C18.7176 13.7208 18.9375 14.4458 18.9375 15.1875C18.9375 16.1821 18.5424 17.1359 17.8391 17.8391C17.1359 18.5424 16.1821 18.9375 15.1875 18.9375ZM20.8125 3H9.5625C7.82259 3.00186 6.15447 3.69386 4.92417 4.92417C3.69386 6.15447 3.00186 7.82259 3 9.5625V20.8125C3.00186 22.5524 3.69386 24.2205 4.92417 25.4508C6.15447 26.6811 7.82259 27.3731 9.5625 27.375H20.8125C22.5524 27.3731 24.2205 26.6811 25.4508 25.4508C26.6811 24.2205 27.3731 22.5524 27.375 20.8125V9.5625C27.3731 7.82259 26.6811 6.15447 25.4508 4.92417C24.2205 3.69386 22.5524 3.00186 20.8125 3ZM25.5 20.8125C25.5 22.0557 25.0061 23.248 24.1271 24.1271C23.248 25.0061 22.0557 25.5 20.8125 25.5H9.5625C8.3193 25.5 7.12701 25.0061 6.24794 24.1271C5.36886 23.248 4.875 22.0557 4.875 20.8125V9.5625C4.875 8.3193 5.36886 7.12701 6.24794 6.24794C7.12701 5.36886 8.3193 4.875 9.5625 4.875H20.8125C22.0557 4.875 23.248 5.36886 24.1271 6.24794C25.0061 7.12701 25.5 8.3193 25.5 9.5625V20.8125ZM22.6875 9.09375C22.6875 9.37188 22.605 9.64376 22.4505 9.87502C22.296 10.1063 22.0764 10.2865 21.8194 10.393C21.5624 10.4994 21.2797 10.5272 21.0069 10.473C20.7341 10.4187 20.4835 10.2848 20.2869 10.0881C20.0902 9.89145 19.9563 9.64088 19.902 9.3681C19.8478 9.09531 19.8756 8.81256 19.982 8.5556C20.0885 8.29864 20.2687 8.07902 20.5 7.9245C20.7312 7.76997 21.0031 7.6875 21.2812 7.6875C21.6542 7.6875 22.0119 7.83566 22.2756 8.09938C22.5393 8.3631 22.6875 8.72079 22.6875 9.09375Z" fill="black"/>
</svg>
