<svg width="30" height="30" viewBox="0 0 30 30" fill="none" xmlns="http://www.w3.org/2000/svg">
<path d="M27.8851 3.25643C27.7399 3.131 27.5632 3.04758 27.374 3.01516C27.1848 2.98274 26.9904 3.00254 26.8117 3.07244L3.06247 12.3666C2.72589 12.4975 2.44094 12.7341 2.25051 13.041C2.06008 13.3478 1.97448 13.7082 2.00661 14.0679C2.03873 14.4276 2.18683 14.7672 2.42862 15.0354C2.67041 15.3036 2.99279 15.4861 3.34724 15.5553L9.50075 16.7635V23.6248C9.49954 23.9985 9.61061 24.364 9.81955 24.6739C10.0285 24.9837 10.3257 25.2237 10.6726 25.3627C11.019 25.5041 11.4 25.5381 11.7659 25.4601C12.1319 25.3822 12.4659 25.1959 12.7246 24.9256L15.6918 21.8482L20.3992 25.9685C20.7388 26.2698 21.1769 26.4365 21.6308 26.4373C21.8298 26.4371 22.0275 26.4059 22.2168 26.3447C22.5261 26.2466 22.8043 26.0691 23.0237 25.83C23.2431 25.5908 23.396 25.2984 23.4672 24.9818L28.2238 4.28885C28.2663 4.10223 28.2573 3.90754 28.1976 3.72567C28.138 3.54379 28.03 3.38158 27.8851 3.25643ZM20.7203 7.47518L10.2215 14.9939L4.40896 13.8537L20.7203 7.47518ZM11.3758 23.6248V18.0607L14.2808 20.6084L11.3758 23.6248ZM21.6332 24.5623L11.9441 16.0662L25.8894 6.07127L21.6332 24.5623Z" fill="black"/>
</svg>
