<svg width="136" height="76" viewBox="0 0 136 76" fill="none" xmlns="http://www.w3.org/2000/svg">
<rect x="39.5" y="0.5" width="49" height="49" fill="white"/>
<path d="M59.1165 17.4545V32H55.6009V17.4545H59.1165ZM61.3235 32V17.4545H67.332C68.421 17.4545 69.3609 17.6676 70.1516 18.0938C70.9471 18.5152 71.5603 19.1046 71.9911 19.8622C72.422 20.6151 72.6374 21.491 72.6374 22.4901C72.6374 23.4938 72.4173 24.3722 71.9769 25.125C71.5413 25.8731 70.9187 26.4531 70.109 26.8651C69.2994 27.277 68.3382 27.483 67.2255 27.483H63.5181V24.7131H66.5721C67.1024 24.7131 67.5451 24.6207 67.9002 24.4361C68.2601 24.2514 68.5323 23.9934 68.717 23.6619C68.9016 23.3258 68.994 22.9351 68.994 22.4901C68.994 22.0402 68.9016 21.652 68.717 21.3253C68.5323 20.9938 68.2601 20.7382 67.9002 20.5582C67.5404 20.3783 67.0977 20.2884 66.5721 20.2884H64.8391V32H61.3235Z" fill="black"/>
<rect x="39.5" y="0.5" width="49" height="49" stroke="black"/>
<path d="M45.4382 72V58.9091H50.1044C51.1229 58.9091 51.9666 59.0945 52.6357 59.4652C53.3047 59.8359 53.8054 60.343 54.1378 60.9865C54.4702 61.6257 54.6364 62.3459 54.6364 63.147C54.6364 63.9524 54.468 64.6768 54.1314 65.3203C53.799 65.9595 53.2962 66.4666 52.6229 66.8416C51.9538 67.2124 51.1122 67.3977 50.098 67.3977H46.8892V65.723H49.919C50.5625 65.723 51.0845 65.6122 51.4851 65.3906C51.8857 65.1648 52.1797 64.858 52.3672 64.4702C52.5547 64.0824 52.6484 63.6413 52.6484 63.147C52.6484 62.6527 52.5547 62.2138 52.3672 61.8303C52.1797 61.4467 51.8835 61.1463 51.4787 60.929C51.0781 60.7116 50.5497 60.603 49.8935 60.603H47.4134V72H45.4382ZM57.6985 72V62.1818H59.5458V63.7415H59.648C59.827 63.2131 60.1424 62.7976 60.5941 62.495C61.05 62.1882 61.5657 62.0348 62.1409 62.0348C62.2603 62.0348 62.4009 62.0391 62.5628 62.0476C62.729 62.0561 62.859 62.0668 62.9527 62.0795V63.9077C62.876 63.8864 62.7397 63.8629 62.5436 63.8374C62.3476 63.8075 62.1516 63.7926 61.9556 63.7926C61.5039 63.7926 61.1012 63.8885 60.7475 64.0803C60.398 64.2678 60.1211 64.5298 59.9165 64.8665C59.712 65.1989 59.6097 65.5781 59.6097 66.0043V72H57.6985ZM69.2908 72.1982C68.3703 72.1982 67.567 71.9872 66.881 71.5653C66.1949 71.1435 65.6622 70.5533 65.283 69.7947C64.9037 69.0362 64.7141 68.1499 64.7141 67.1357C64.7141 66.1172 64.9037 65.2266 65.283 64.4638C65.6622 63.701 66.1949 63.1087 66.881 62.6868C67.567 62.2649 68.3703 62.054 69.2908 62.054C70.2112 62.054 71.0145 62.2649 71.7006 62.6868C72.3866 63.1087 72.9193 63.701 73.2986 64.4638C73.6778 65.2266 73.8675 66.1172 73.8675 67.1357C73.8675 68.1499 73.6778 69.0362 73.2986 69.7947C72.9193 70.5533 72.3866 71.1435 71.7006 71.5653C71.0145 71.9872 70.2112 72.1982 69.2908 72.1982ZM69.2972 70.5938C69.8937 70.5938 70.3881 70.4361 70.7801 70.1207C71.1722 69.8054 71.4619 69.3857 71.6494 68.8615C71.8412 68.3374 71.9371 67.7599 71.9371 67.1293C71.9371 66.5028 71.8412 65.9276 71.6494 65.4034C71.4619 64.875 71.1722 64.451 70.7801 64.1314C70.3881 63.8118 69.8937 63.652 69.2972 63.652C68.6963 63.652 68.1977 63.8118 67.8014 64.1314C67.4094 64.451 67.1175 64.875 66.9257 65.4034C66.7382 65.9276 66.6445 66.5028 66.6445 67.1293C66.6445 67.7599 66.7382 68.3374 66.9257 68.8615C67.1175 69.3857 67.4094 69.8054 67.8014 70.1207C68.1977 70.4361 68.6963 70.5938 69.2972 70.5938ZM84.2581 64.5788L82.5258 64.8857C82.4534 64.6641 82.3383 64.4531 82.1806 64.2528C82.0272 64.0526 81.8184 63.8885 81.5542 63.7607C81.29 63.6328 80.9598 63.5689 80.5635 63.5689C80.0223 63.5689 79.5706 63.6903 79.2083 63.9332C78.8461 64.1719 78.665 64.4808 78.665 64.8601C78.665 65.1882 78.7865 65.4524 79.0294 65.6527C79.2723 65.853 79.6643 66.017 80.2055 66.1449L81.7652 66.5028C82.6686 66.7116 83.3419 67.0334 83.7851 67.468C84.2282 67.9027 84.4498 68.4673 84.4498 69.1619C84.4498 69.75 84.2794 70.2741 83.9385 70.7344C83.6018 71.1903 83.1309 71.5483 82.5258 71.8082C81.925 72.0682 81.2282 72.1982 80.4356 72.1982C79.3362 72.1982 78.4392 71.9638 77.7446 71.495C77.05 71.022 76.6238 70.3509 76.4662 69.4815L78.3135 69.2003C78.4285 69.6818 78.665 70.0462 79.023 70.2933C79.3809 70.5362 79.8476 70.6577 80.4228 70.6577C81.0493 70.6577 81.55 70.5277 81.925 70.2678C82.3 70.0036 82.4875 69.6818 82.4875 69.3026C82.4875 68.9957 82.3724 68.7379 82.1423 68.5291C81.9164 68.3203 81.5691 68.1626 81.1004 68.0561L79.4385 67.6918C78.5223 67.483 77.8447 67.1506 77.4058 66.6946C76.9711 66.2386 76.7538 65.6612 76.7538 64.9624C76.7538 64.3828 76.9157 63.8757 77.2396 63.4411C77.5635 63.0064 78.0109 62.6676 78.5819 62.4247C79.1529 62.1776 79.8071 62.054 80.5443 62.054C81.6054 62.054 82.4406 62.2841 83.05 62.7443C83.6593 63.2003 84.062 63.8118 84.2581 64.5788ZM88.6593 75.6818C88.3738 75.6818 88.1138 75.6584 87.8795 75.6115C87.6451 75.5689 87.4704 75.522 87.3553 75.4709L87.8156 73.9048C88.165 73.9986 88.4761 74.0391 88.7488 74.0263C89.0215 74.0135 89.2623 73.9112 89.4711 73.7195C89.6842 73.5277 89.8717 73.2145 90.0336 72.7798L90.2701 72.1278L86.6778 62.1818H88.7232L91.2097 69.8011H91.312L93.7985 62.1818H95.8504L91.8042 73.3104C91.6167 73.8217 91.3781 74.2543 91.0883 74.608C90.7985 74.9659 90.4533 75.2344 90.0528 75.4134C89.6522 75.5923 89.1877 75.6818 88.6593 75.6818ZM101.123 72.2173C100.5 72.2173 99.9379 72.1023 99.435 71.8722C98.9322 71.6378 98.5337 71.299 98.2397 70.8558C97.9499 70.4126 97.805 69.8693 97.805 69.2259C97.805 68.6719 97.9116 68.2159 98.1246 67.858C98.3377 67.5 98.6254 67.2166 98.9876 67.0078C99.3498 66.799 99.7546 66.6413 100.202 66.5348C100.65 66.4283 101.105 66.3473 101.57 66.2919C102.158 66.2237 102.635 66.1683 103.002 66.1257C103.368 66.0788 103.635 66.0043 103.801 65.902C103.967 65.7997 104.05 65.6335 104.05 65.4034V65.3587C104.05 64.8004 103.892 64.3679 103.577 64.0611C103.266 63.7543 102.801 63.6009 102.184 63.6009C101.54 63.6009 101.033 63.7436 100.662 64.0291C100.296 64.3104 100.042 64.6236 99.9016 64.9688L98.1055 64.5597C98.3185 63.9631 98.6296 63.4815 99.0387 63.1151C99.4521 62.7443 99.9272 62.4759 100.464 62.3097C101.001 62.1392 101.566 62.054 102.158 62.054C102.55 62.054 102.966 62.1009 103.404 62.1946C103.848 62.2841 104.261 62.4503 104.645 62.6932C105.032 62.9361 105.35 63.2834 105.597 63.7351C105.844 64.1825 105.968 64.7642 105.968 65.4801V72H104.101V70.6577H104.025C103.901 70.9048 103.716 71.1477 103.468 71.3864C103.221 71.625 102.904 71.8232 102.516 71.9808C102.128 72.1385 101.664 72.2173 101.123 72.2173ZM101.538 70.6832C102.066 70.6832 102.518 70.5788 102.893 70.37C103.272 70.1612 103.56 69.8885 103.756 69.5518C103.956 69.2109 104.056 68.8466 104.056 68.4588V67.1932C103.988 67.2614 103.856 67.3253 103.66 67.3849C103.468 67.4403 103.249 67.4893 103.002 67.532C102.755 67.5703 102.514 67.6065 102.279 67.6406C102.045 67.6705 101.849 67.696 101.691 67.7173C101.321 67.7642 100.982 67.843 100.675 67.9538C100.373 68.0646 100.13 68.2244 99.9464 68.4332C99.7674 68.6378 99.6779 68.9105 99.6779 69.2514C99.6779 69.7244 99.8526 70.0824 100.202 70.3253C100.551 70.5639 100.997 70.6832 101.538 70.6832ZM111.325 66.1705V72H109.413V62.1818H111.248V63.7798H111.369C111.595 63.2599 111.949 62.8423 112.43 62.527C112.916 62.2116 113.528 62.054 114.265 62.054C114.934 62.054 115.52 62.1946 116.023 62.4759C116.526 62.7528 116.915 63.1662 117.192 63.7159C117.469 64.2656 117.608 64.9453 117.608 65.755V72H115.697V65.9851C115.697 65.2734 115.511 64.7173 115.141 64.3168C114.77 63.9119 114.261 63.7095 113.613 63.7095C113.17 63.7095 112.776 63.8054 112.43 63.9972C112.089 64.1889 111.819 64.4702 111.619 64.8409C111.423 65.2074 111.325 65.6506 111.325 66.1705ZM121.071 72V62.1818H122.982V72H121.071ZM122.036 60.6669C121.704 60.6669 121.418 60.5561 121.18 60.3345C120.945 60.1087 120.828 59.8402 120.828 59.5291C120.828 59.2138 120.945 58.9453 121.18 58.7237C121.418 58.4979 121.704 58.3849 122.036 58.3849C122.369 58.3849 122.652 58.4979 122.886 58.7237C123.125 58.9453 123.244 59.2138 123.244 59.5291C123.244 59.8402 123.125 60.1087 122.886 60.3345C122.652 60.5561 122.369 60.6669 122.036 60.6669ZM128.211 68.6697L128.199 66.3366H128.531L132.443 62.1818H134.731L130.27 66.9119H129.969L128.211 68.6697ZM126.454 72V58.9091H128.365V72H126.454ZM132.654 72L129.138 67.3338L130.455 65.9979L135 72H132.654Z" fill="white"/>
<path d="M3.41335 58.9091V72H1.43821V58.9091H3.41335ZM15.4355 62.1818L11.8751 72H9.82969L6.26293 62.1818H8.31477L10.8013 69.7372H10.9036L13.3837 62.1818H15.4355ZM20.7077 72.2173C20.0855 72.2173 19.523 72.1023 19.0202 71.8722C18.5173 71.6378 18.1189 71.299 17.8249 70.8558C17.5351 70.4126 17.3902 69.8693 17.3902 69.2259C17.3902 68.6719 17.4967 68.2159 17.7098 67.858C17.9229 67.5 18.2105 67.2166 18.5727 67.0078C18.9349 66.799 19.3398 66.6413 19.7872 66.5348C20.2347 66.4283 20.6906 66.3473 21.1551 66.2919C21.7432 66.2237 22.2205 66.1683 22.5869 66.1257C22.9534 66.0788 23.2197 66.0043 23.3859 65.902C23.5521 65.7997 23.6352 65.6335 23.6352 65.4034V65.3587C23.6352 64.8004 23.4776 64.3679 23.1622 64.0611C22.8511 63.7543 22.3866 63.6009 21.7687 63.6009C21.1253 63.6009 20.6182 63.7436 20.2474 64.0291C19.881 64.3104 19.6274 64.6236 19.4868 64.9688L17.6906 64.5597C17.9037 63.9631 18.2148 63.4815 18.6239 63.1151C19.0372 62.7443 19.5124 62.4759 20.0493 62.3097C20.5862 62.1392 21.1509 62.054 21.7432 62.054C22.1352 62.054 22.5507 62.1009 22.9896 62.1946C23.4328 62.2841 23.8462 62.4503 24.2297 62.6932C24.6175 62.9361 24.9349 63.2834 25.1821 63.7351C25.4293 64.1825 25.5528 64.7642 25.5528 65.4801V72H23.6864V70.6577H23.6097C23.4861 70.9048 23.3007 71.1477 23.0536 71.3864C22.8064 71.625 22.4889 71.8232 22.1011 71.9808C21.7134 72.1385 21.2489 72.2173 20.7077 72.2173ZM21.1232 70.6832C21.6516 70.6832 22.1033 70.5788 22.4783 70.37C22.8575 70.1612 23.1452 69.8885 23.3412 69.5518C23.5415 69.2109 23.6416 68.8466 23.6416 68.4588V67.1932C23.5734 67.2614 23.4413 67.3253 23.2453 67.3849C23.0536 67.4403 22.8341 67.4893 22.5869 67.532C22.3398 67.5703 22.099 67.6065 21.8646 67.6406C21.6303 67.6705 21.4342 67.696 21.2766 67.7173C20.9058 67.7642 20.567 67.843 20.2602 67.9538C19.9577 68.0646 19.7148 68.2244 19.5315 68.4332C19.3526 68.6378 19.2631 68.9105 19.2631 69.2514C19.2631 69.7244 19.4378 70.0824 19.7872 70.3253C20.1366 70.5639 20.582 70.6832 21.1232 70.6832ZM30.9097 66.1705V72H28.9985V62.1818H30.833V63.7798H30.9544C31.1803 63.2599 31.534 62.8423 32.0155 62.527C32.5013 62.2116 33.1128 62.054 33.85 62.054C34.5191 62.054 35.105 62.1946 35.6078 62.4759C36.1107 62.7528 36.5006 63.1662 36.7776 63.7159C37.0546 64.2656 37.1931 64.9453 37.1931 65.755V72H35.2819V65.9851C35.2819 65.2734 35.0965 64.7173 34.7257 64.3168C34.355 63.9119 33.8458 63.7095 33.198 63.7095C32.7549 63.7095 32.3607 63.8054 32.0155 63.9972C31.6746 64.1889 31.404 64.4702 31.2037 64.8409C31.0077 65.2074 30.9097 65.6506 30.9097 66.1705Z" fill="white"/>
</svg>
