<svg width="147" height="50" viewBox="0 0 147 50" fill="none" xmlns="http://www.w3.org/2000/svg">
<rect x="0.5" y="0.5" width="49" height="49" fill="white"/>
<path d="M20.1165 17.4545V32H16.6009V17.4545H20.1165ZM22.3235 32V17.4545H28.332C29.421 17.4545 30.3609 17.6676 31.1516 18.0938C31.9471 18.5152 32.5603 19.1046 32.9911 19.8622C33.422 20.6151 33.6374 21.491 33.6374 22.4901C33.6374 23.4938 33.4173 24.3722 32.9769 25.125C32.5413 25.8731 31.9187 26.4531 31.109 26.8651C30.2994 27.277 29.3382 27.483 28.2255 27.483H24.5181V24.7131H27.5721C28.1024 24.7131 28.5451 24.6207 28.9002 24.4361C29.2601 24.2514 29.5323 23.9934 29.717 23.6619C29.9016 23.3258 29.994 22.9351 29.994 22.4901C29.994 22.0402 29.9016 21.652 29.717 21.3253C29.5323 20.9938 29.2601 20.7382 28.9002 20.5582C28.5404 20.3783 28.0977 20.2884 27.5721 20.2884H25.8391V32H22.3235Z" fill="black"/>
<rect x="0.5" y="0.5" width="49" height="49" stroke="black"/>
<path d="M56.4382 43V29.9091H61.1044C62.1229 29.9091 62.9666 30.0945 63.6357 30.4652C64.3047 30.8359 64.8054 31.343 65.1378 31.9865C65.4702 32.6257 65.6364 33.3459 65.6364 34.147C65.6364 34.9524 65.468 35.6768 65.1314 36.3203C64.799 36.9595 64.2962 37.4666 63.6229 37.8416C62.9538 38.2124 62.1122 38.3977 61.098 38.3977H57.8892V36.723H60.919C61.5625 36.723 62.0845 36.6122 62.4851 36.3906C62.8857 36.1648 63.1797 35.858 63.3672 35.4702C63.5547 35.0824 63.6484 34.6413 63.6484 34.147C63.6484 33.6527 63.5547 33.2138 63.3672 32.8303C63.1797 32.4467 62.8835 32.1463 62.4787 31.929C62.0781 31.7116 61.5497 31.603 60.8935 31.603H58.4134V43H56.4382ZM68.6985 43V33.1818H70.5458V34.7415H70.648C70.827 34.2131 71.1424 33.7976 71.5941 33.495C72.05 33.1882 72.5657 33.0348 73.1409 33.0348C73.2603 33.0348 73.4009 33.0391 73.5628 33.0476C73.729 33.0561 73.859 33.0668 73.9527 33.0795V34.9077C73.876 34.8864 73.7397 34.8629 73.5436 34.8374C73.3476 34.8075 73.1516 34.7926 72.9556 34.7926C72.5039 34.7926 72.1012 34.8885 71.7475 35.0803C71.398 35.2678 71.1211 35.5298 70.9165 35.8665C70.712 36.1989 70.6097 36.5781 70.6097 37.0043V43H68.6985ZM80.2908 43.1982C79.3703 43.1982 78.567 42.9872 77.881 42.5653C77.1949 42.1435 76.6622 41.5533 76.283 40.7947C75.9037 40.0362 75.7141 39.1499 75.7141 38.1357C75.7141 37.1172 75.9037 36.2266 76.283 35.4638C76.6622 34.701 77.1949 34.1087 77.881 33.6868C78.567 33.2649 79.3703 33.054 80.2908 33.054C81.2112 33.054 82.0145 33.2649 82.7006 33.6868C83.3866 34.1087 83.9193 34.701 84.2986 35.4638C84.6778 36.2266 84.8675 37.1172 84.8675 38.1357C84.8675 39.1499 84.6778 40.0362 84.2986 40.7947C83.9193 41.5533 83.3866 42.1435 82.7006 42.5653C82.0145 42.9872 81.2112 43.1982 80.2908 43.1982ZM80.2972 41.5938C80.8937 41.5938 81.3881 41.4361 81.7801 41.1207C82.1722 40.8054 82.4619 40.3857 82.6494 39.8615C82.8412 39.3374 82.9371 38.7599 82.9371 38.1293C82.9371 37.5028 82.8412 36.9276 82.6494 36.4034C82.4619 35.875 82.1722 35.451 81.7801 35.1314C81.3881 34.8118 80.8937 34.652 80.2972 34.652C79.6963 34.652 79.1977 34.8118 78.8014 35.1314C78.4094 35.451 78.1175 35.875 77.9257 36.4034C77.7382 36.9276 77.6445 37.5028 77.6445 38.1293C77.6445 38.7599 77.7382 39.3374 77.9257 39.8615C78.1175 40.3857 78.4094 40.8054 78.8014 41.1207C79.1977 41.4361 79.6963 41.5938 80.2972 41.5938ZM95.2581 35.5788L93.5258 35.8857C93.4534 35.6641 93.3383 35.4531 93.1806 35.2528C93.0272 35.0526 92.8184 34.8885 92.5542 34.7607C92.29 34.6328 91.9598 34.5689 91.5635 34.5689C91.0223 34.5689 90.5706 34.6903 90.2083 34.9332C89.8461 35.1719 89.665 35.4808 89.665 35.8601C89.665 36.1882 89.7865 36.4524 90.0294 36.6527C90.2723 36.853 90.6643 37.017 91.2055 37.1449L92.7652 37.5028C93.6686 37.7116 94.3419 38.0334 94.7851 38.468C95.2282 38.9027 95.4498 39.4673 95.4498 40.1619C95.4498 40.75 95.2794 41.2741 94.9385 41.7344C94.6018 42.1903 94.1309 42.5483 93.5258 42.8082C92.925 43.0682 92.2282 43.1982 91.4356 43.1982C90.3362 43.1982 89.4392 42.9638 88.7446 42.495C88.05 42.022 87.6238 41.3509 87.4662 40.4815L89.3135 40.2003C89.4285 40.6818 89.665 41.0462 90.023 41.2933C90.3809 41.5362 90.8476 41.6577 91.4228 41.6577C92.0493 41.6577 92.55 41.5277 92.925 41.2678C93.3 41.0036 93.4875 40.6818 93.4875 40.3026C93.4875 39.9957 93.3724 39.7379 93.1423 39.5291C92.9164 39.3203 92.5691 39.1626 92.1004 39.0561L90.4385 38.6918C89.5223 38.483 88.8447 38.1506 88.4058 37.6946C87.9711 37.2386 87.7538 36.6612 87.7538 35.9624C87.7538 35.3828 87.9157 34.8757 88.2396 34.4411C88.5635 34.0064 89.0109 33.6676 89.5819 33.4247C90.1529 33.1776 90.8071 33.054 91.5443 33.054C92.6054 33.054 93.4406 33.2841 94.05 33.7443C94.6593 34.2003 95.062 34.8118 95.2581 35.5788ZM99.6593 46.6818C99.3738 46.6818 99.1138 46.6584 98.8795 46.6115C98.6451 46.5689 98.4704 46.522 98.3553 46.4709L98.8156 44.9048C99.165 44.9986 99.4761 45.0391 99.7488 45.0263C100.022 45.0135 100.262 44.9112 100.471 44.7195C100.684 44.5277 100.872 44.2145 101.034 43.7798L101.27 43.1278L97.6778 33.1818H99.7232L102.21 40.8011H102.312L104.799 33.1818H106.85L102.804 44.3104C102.617 44.8217 102.378 45.2543 102.088 45.608C101.799 45.9659 101.453 46.2344 101.053 46.4134C100.652 46.5923 100.188 46.6818 99.6593 46.6818ZM112.123 43.2173C111.5 43.2173 110.938 43.1023 110.435 42.8722C109.932 42.6378 109.534 42.299 109.24 41.8558C108.95 41.4126 108.805 40.8693 108.805 40.2259C108.805 39.6719 108.912 39.2159 109.125 38.858C109.338 38.5 109.625 38.2166 109.988 38.0078C110.35 37.799 110.755 37.6413 111.202 37.5348C111.65 37.4283 112.105 37.3473 112.57 37.2919C113.158 37.2237 113.635 37.1683 114.002 37.1257C114.368 37.0788 114.635 37.0043 114.801 36.902C114.967 36.7997 115.05 36.6335 115.05 36.4034V36.3587C115.05 35.8004 114.892 35.3679 114.577 35.0611C114.266 34.7543 113.801 34.6009 113.184 34.6009C112.54 34.6009 112.033 34.7436 111.662 35.0291C111.296 35.3104 111.042 35.6236 110.902 35.9688L109.105 35.5597C109.319 34.9631 109.63 34.4815 110.039 34.1151C110.452 33.7443 110.927 33.4759 111.464 33.3097C112.001 33.1392 112.566 33.054 113.158 33.054C113.55 33.054 113.966 33.1009 114.404 33.1946C114.848 33.2841 115.261 33.4503 115.645 33.6932C116.032 33.9361 116.35 34.2834 116.597 34.7351C116.844 35.1825 116.968 35.7642 116.968 36.4801V43H115.101V41.6577H115.025C114.901 41.9048 114.716 42.1477 114.468 42.3864C114.221 42.625 113.904 42.8232 113.516 42.9808C113.128 43.1385 112.664 43.2173 112.123 43.2173ZM112.538 41.6832C113.066 41.6832 113.518 41.5788 113.893 41.37C114.272 41.1612 114.56 40.8885 114.756 40.5518C114.956 40.2109 115.056 39.8466 115.056 39.4588V38.1932C114.988 38.2614 114.856 38.3253 114.66 38.3849C114.468 38.4403 114.249 38.4893 114.002 38.532C113.755 38.5703 113.514 38.6065 113.279 38.6406C113.045 38.6705 112.849 38.696 112.691 38.7173C112.321 38.7642 111.982 38.843 111.675 38.9538C111.373 39.0646 111.13 39.2244 110.946 39.4332C110.767 39.6378 110.678 39.9105 110.678 40.2514C110.678 40.7244 110.853 41.0824 111.202 41.3253C111.551 41.5639 111.997 41.6832 112.538 41.6832ZM122.325 37.1705V43H120.413V33.1818H122.248V34.7798H122.369C122.595 34.2599 122.949 33.8423 123.43 33.527C123.916 33.2116 124.528 33.054 125.265 33.054C125.934 33.054 126.52 33.1946 127.023 33.4759C127.526 33.7528 127.915 34.1662 128.192 34.7159C128.469 35.2656 128.608 35.9453 128.608 36.755V43H126.697V36.9851C126.697 36.2734 126.511 35.7173 126.141 35.3168C125.77 34.9119 125.261 34.7095 124.613 34.7095C124.17 34.7095 123.776 34.8054 123.43 34.9972C123.089 35.1889 122.819 35.4702 122.619 35.8409C122.423 36.2074 122.325 36.6506 122.325 37.1705ZM132.071 43V33.1818H133.982V43H132.071ZM133.036 31.6669C132.704 31.6669 132.418 31.5561 132.18 31.3345C131.945 31.1087 131.828 30.8402 131.828 30.5291C131.828 30.2138 131.945 29.9453 132.18 29.7237C132.418 29.4979 132.704 29.3849 133.036 29.3849C133.369 29.3849 133.652 29.4979 133.886 29.7237C134.125 29.9453 134.244 30.2138 134.244 30.5291C134.244 30.8402 134.125 31.1087 133.886 31.3345C133.652 31.5561 133.369 31.6669 133.036 31.6669ZM139.211 39.6697L139.199 37.3366H139.531L143.443 33.1818H145.731L141.27 37.9119H140.969L139.211 39.6697ZM137.454 43V29.9091H139.365V43H137.454ZM143.654 43L140.138 38.3338L141.455 36.9979L146 43H143.654Z" fill="black"/>
<path d="M58.4134 7.90909V21H56.4382V7.90909H58.4134ZM70.4355 11.1818L66.8751 21H64.8297L61.2629 11.1818H63.3148L65.8013 18.7372H65.9036L68.3837 11.1818H70.4355ZM75.7077 21.2173C75.0855 21.2173 74.523 21.1023 74.0202 20.8722C73.5173 20.6378 73.1189 20.299 72.8249 19.8558C72.5351 19.4126 72.3902 18.8693 72.3902 18.2259C72.3902 17.6719 72.4967 17.2159 72.7098 16.858C72.9229 16.5 73.2105 16.2166 73.5727 16.0078C73.9349 15.799 74.3398 15.6413 74.7872 15.5348C75.2347 15.4283 75.6906 15.3473 76.1551 15.2919C76.7432 15.2237 77.2205 15.1683 77.5869 15.1257C77.9534 15.0788 78.2197 15.0043 78.3859 14.902C78.5521 14.7997 78.6352 14.6335 78.6352 14.4034V14.3587C78.6352 13.8004 78.4776 13.3679 78.1622 13.0611C77.8511 12.7543 77.3866 12.6009 76.7687 12.6009C76.1253 12.6009 75.6182 12.7436 75.2474 13.0291C74.881 13.3104 74.6274 13.6236 74.4868 13.9688L72.6906 13.5597C72.9037 12.9631 73.2148 12.4815 73.6239 12.1151C74.0372 11.7443 74.5124 11.4759 75.0493 11.3097C75.5862 11.1392 76.1509 11.054 76.7432 11.054C77.1352 11.054 77.5507 11.1009 77.9896 11.1946C78.4328 11.2841 78.8462 11.4503 79.2297 11.6932C79.6175 11.9361 79.9349 12.2834 80.1821 12.7351C80.4293 13.1825 80.5528 13.7642 80.5528 14.4801V21H78.6864V19.6577H78.6097C78.4861 19.9048 78.3007 20.1477 78.0536 20.3864C77.8064 20.625 77.4889 20.8232 77.1011 20.9808C76.7134 21.1385 76.2489 21.2173 75.7077 21.2173ZM76.1232 19.6832C76.6516 19.6832 77.1033 19.5788 77.4783 19.37C77.8575 19.1612 78.1452 18.8885 78.3412 18.5518C78.5415 18.2109 78.6416 17.8466 78.6416 17.4588V16.1932C78.5734 16.2614 78.4413 16.3253 78.2453 16.3849C78.0536 16.4403 77.8341 16.4893 77.5869 16.532C77.3398 16.5703 77.099 16.6065 76.8646 16.6406C76.6303 16.6705 76.4342 16.696 76.2766 16.7173C75.9058 16.7642 75.567 16.843 75.2602 16.9538C74.9577 17.0646 74.7148 17.2244 74.5315 17.4332C74.3526 17.6378 74.2631 17.9105 74.2631 18.2514C74.2631 18.7244 74.4378 19.0824 74.7872 19.3253C75.1366 19.5639 75.582 19.6832 76.1232 19.6832ZM85.9097 15.1705V21H83.9985V11.1818H85.833V12.7798H85.9544C86.1803 12.2599 86.534 11.8423 87.0155 11.527C87.5013 11.2116 88.1128 11.054 88.85 11.054C89.5191 11.054 90.105 11.1946 90.6078 11.4759C91.1107 11.7528 91.5006 12.1662 91.7776 12.7159C92.0546 13.2656 92.1931 13.9453 92.1931 14.755V21H90.2819V14.9851C90.2819 14.2734 90.0965 13.7173 89.7257 13.3168C89.355 12.9119 88.8458 12.7095 88.198 12.7095C87.7549 12.7095 87.3607 12.8054 87.0155 12.9972C86.6746 13.1889 86.404 13.4702 86.2037 13.8409C86.0077 14.2074 85.9097 14.6506 85.9097 15.1705Z" fill="black"/>
</svg>
